<svg xmlns="http://www.w3.org/2000/svg" fill-rule="evenodd" clip-rule="evenodd" image-rendering="optimizeQuality" shape-rendering="geometricPrecision" text-rendering="geometricPrecision" version="1" viewBox="0 0 2245 2244"><path fill="#20A357" d="M485 1478c-23-246-80-235-177-449-80-174-132-340-82-582A1119 1119 0 0 0 0 1141c0 512 390 993 916 1086a1083 1083 0 0 1-431-749z"/><path fill="#20A357" d="M1225 1372C2093 740 1406 54 1386 32c66 578-422 754-580 915-226 232-260 412-206 654 60 266 286 586 574 643-300-114-404-542 51-872z"/><path fill="#00A0E3" d="M1537 79a892 892 0 0 1 202 724c-100 543-642 625-720 979-48 220 85 404 315 405 478 1 920-515 911-1071-6-438-256-855-708-1037z"/><path fill="#EC691F" d="M940 730c464-302 353-718 353-718-42-8-92-12-147-12-299 0-747 127-826 443-104 416 202 754 202 754s73-242 418-467z"/></svg>